<svg width="21" height="20" viewBox="0 0 21 20" fill="none" xmlns="http://www.w3.org/2000/svg">
<path d="M1.47779 0.404044C1.34782 0.366288 1.21006 0.364402 1.07911 0.398587C0.948166 0.432771 0.828907 0.501752 0.733981 0.598215C0.639055 0.694679 0.572 0.815031 0.539924 0.946512C0.507848 1.07799 0.511947 1.2157 0.551786 1.34504L2.98379 9.25004H11.4998C11.6987 9.25004 11.8895 9.32906 12.0301 9.46971C12.1708 9.61037 12.2498 9.80113 12.2498 10C12.2498 10.199 12.1708 10.3897 12.0301 10.5304C11.8895 10.671 11.6987 10.75 11.4998 10.75H2.98379L0.551786 18.655C0.512182 18.7843 0.508264 18.9219 0.540445 19.0532C0.572626 19.1846 0.63971 19.3047 0.734598 19.4011C0.829486 19.4974 0.948648 19.5663 1.07947 19.6004C1.2103 19.6346 1.34793 19.6327 1.47779 19.595C8.09275 17.6714 14.3307 14.6324 19.9228 10.609C20.0194 10.5396 20.0981 10.4481 20.1524 10.3422C20.2067 10.2363 20.235 10.119 20.235 10C20.235 9.88104 20.2067 9.76375 20.1524 9.65785C20.0981 9.55196 20.0194 9.4605 19.9228 9.39104C14.3308 5.36734 8.09283 2.328 1.47779 0.404044Z" fill="#656358"/>
</svg>
