<svg width="55" height="59" viewBox="0 0 55 59" fill="none" xmlns="http://www.w3.org/2000/svg">
<path d="M19.7778 28.1188C20.0402 27.4682 20.1714 26.6875 20.4337 26.0369C22.0079 22.0032 26.5992 21.2225 29.6164 24.3453C31.5841 26.4273 32.1088 28.8996 30.9282 31.1116C29.354 33.9743 26.7304 35.2754 23.7132 34.8851C22.1391 34.6248 21.7455 33.5839 21.0896 32.5429C20.6961 31.1116 20.1714 29.6802 19.7778 28.1188Z" fill="#FAC95D"/>
<path d="M54.017 28.6418C53.8858 29.2924 53.8859 29.943 53.7547 30.5936C53.8859 29.943 54.017 29.2924 54.017 28.6418C54.017 28.5117 54.0171 28.2514 53.8859 28.1213C53.23 26.5598 51.7871 25.9092 50.2129 25.5189C50.0817 25.3887 49.9505 25.3888 49.6882 25.3888C48.3764 24.2177 46.9334 23.0466 44.9657 23.3069C43.1292 22.6563 41.4237 22.1358 39.456 22.0057C37.6195 21.8756 37.0947 20.8346 38.2754 19.5334C40.6366 17.0611 41.555 13.8081 43.1291 10.8153C43.9162 9.25384 44.5721 7.30207 44.7032 5.48038C44.8344 3.13822 43.6538 1.18641 41.4237 0.926173C39.5872 0.665932 37.6196 0.665948 35.7831 0.535828C33.4218 0.405708 31.5851 1.70685 30.4045 3.39841C28.1745 6.65142 26.2068 10.0346 24.2391 13.4177C23.8456 14.1984 23.5833 15.1092 22.665 15.1092C21.6156 15.2394 21.3531 14.0683 21.0907 13.4177C19.6477 9.51408 16.6307 6.65142 14.2694 3.39841C13.4823 2.22733 12.3017 1.83697 10.9899 2.09721C9.28454 2.35745 7.57916 2.61771 5.87381 3.00807C3.77493 3.52855 2.59424 4.04901 2.20069 6.00082C1.54479 10.2948 1.67607 14.5888 4.43086 18.2322C5.61149 19.7936 6.79205 21.6153 8.62858 22.7864C9.94038 23.6972 10.5963 25.2587 11.3833 26.5599C12.0392 27.731 11.6458 28.902 10.334 29.2924C9.02218 29.8129 8.10392 30.8538 7.05447 31.6345C5.4803 32.8056 4.56207 34.8875 2.98791 35.9285C0.626656 37.4899 0.495347 39.702 0.232986 42.0442C-0.0293755 43.8658 1.28249 45.2972 2.5943 45.6875C4.29965 46.3381 6.39857 47.1189 8.36628 46.208C11.9082 44.6466 15.5812 43.3454 18.8607 41.2635C20.9596 39.9623 20.9596 40.0924 22.0091 42.1743C22.5338 43.3454 23.1896 44.6466 23.7143 45.8177C25.8132 49.8514 27.9122 53.755 30.667 57.2683C31.3229 58.049 31.8476 58.8297 32.7658 58.9598C35.783 59.3502 39.0624 56.8779 39.5872 53.755C39.8495 51.9333 39.9808 50.1116 39.9808 48.1598C40.1119 44.6466 39.1937 41.3936 38.1442 38.1405C37.7507 36.9695 38.2754 36.0587 39.456 36.0587C40.1119 36.0587 40.6367 36.3189 41.2926 36.449C44.7033 36.8394 48.114 36.7093 51 34.3671C52.8365 34.1069 54.017 33.196 54.017 31.1141C55.3288 30.2033 55.3288 29.2924 54.017 28.6418ZM30.7981 31.1141C29.224 33.9767 26.6003 35.2779 23.5832 34.8875C22.009 34.6273 21.6155 33.5864 20.9596 32.5454C20.4349 31.1141 20.0413 29.6827 19.5166 28.1213C19.779 27.4707 19.9102 26.69 20.1725 26.0394C21.7467 22.0056 26.338 21.2249 29.3552 24.3478C31.5852 26.5599 31.9788 29.0322 30.7981 31.1141ZM46.4086 24.9984C46.2775 24.6081 45.884 24.4779 45.6216 24.2177C45.884 24.4779 46.2775 24.7382 46.4086 24.9984Z" fill="#85A865"/>
</svg>
