<svg width="60" height="59" viewBox="0 0 60 59" fill="none" xmlns="http://www.w3.org/2000/svg">
<path d="M31.6747 26.2729C32.0683 27.7043 33.5113 28.2248 34.2983 29.526C35.0854 31.0874 34.6918 32.2585 33.9047 33.5597C32.9865 34.9911 31.8058 34.6007 30.6252 34.2103C30.1005 32.779 28.9199 31.4777 28.5264 29.9163C28.5264 29.5259 28.5263 29.1356 28.6575 28.6151C29.3134 28.0946 29.5757 27.444 29.5757 26.6633C29.5757 26.5332 29.707 26.4031 29.707 26.2729C30.2317 26.2729 30.8876 26.2729 31.6747 26.2729Z" fill="#FAC95D"/>
<path d="M57.3856 41.8871C56.8609 41.3666 56.3362 40.9763 55.9427 40.3257C54.3685 37.9835 52.5319 35.9016 49.9082 34.8607C49.7771 34.7306 49.646 34.7305 49.5148 34.7305C49.1213 32.5185 46.8912 32.5185 45.5794 31.6077C44.0052 30.5667 44.0052 30.1763 45.5794 29.2654C48.8589 27.5739 51.8759 25.492 54.4996 23.0197C58.1726 19.5064 57.7791 16.1233 53.8437 13.1306C53.4501 12.8703 52.9254 12.61 52.5319 12.3498C52.4007 12.2197 52.2696 12.2197 52.0073 12.2197C49.9084 10.6583 46.2353 10.7884 43.6117 12.3498C40.9881 13.7811 38.8891 15.9932 36.1343 17.2944C36.1343 17.6848 35.8719 17.8149 35.4784 17.945C35.4784 17.5547 35.6096 17.2944 36.1343 17.2944C35.6096 15.9932 35.6096 14.5619 35.3472 13.1306C34.9537 9.74744 33.642 6.62452 31.0184 4.15224C30.8872 3.11128 30.1 2.98119 29.313 2.72095C28.7882 2.20046 28.2634 1.67994 27.6075 1.28958C24.5904 -0.92247 21.4422 -0.271836 19.868 3.11129C18.5562 5.97394 18.425 9.09683 18.5562 12.2197C18.6874 14.692 18.9496 17.0341 19.0808 19.5064C17.6378 19.2462 16.4573 18.986 15.4078 18.5956C10.9477 17.1643 6.48756 16.3835 2.28978 19.5064C0.19089 20.9377 -0.202716 23.1498 1.24027 25.2317C2.81444 28.0944 5.43808 30.0462 8.32406 31.6077C10.5541 32.7788 13.1778 33.4294 15.2767 34.8607C16.3261 35.5113 17.5067 35.9016 18.8185 35.6414C20.3927 36.5522 20.3926 37.7233 19.7367 39.2847C18.6873 42.0172 17.1132 44.6196 17.3755 47.7425C16.982 48.5233 16.8507 49.4341 17.1131 50.2149C16.5884 52.9474 17.5067 55.1594 18.9497 57.3715C19.3432 58.0221 19.868 58.4124 20.6551 58.1522C21.4421 58.1522 22.3604 58.2823 23.1475 58.2823C24.0658 59.063 24.984 58.6727 26.0334 58.2823C28.5259 56.9811 29.9688 54.7691 30.7559 52.1667C30.3624 52.0365 29.9688 52.1666 29.5752 52.0365C29.9688 52.1666 30.3624 52.1667 30.7559 52.1667C30.8871 51.9064 31.0183 51.6461 31.1495 51.3859C32.199 49.6943 33.1172 48.1329 33.9043 46.3112C34.2978 45.2703 34.429 43.839 35.872 43.3185C37.0526 42.9281 37.5773 44.2293 38.6267 44.4895C39.4138 44.7498 40.3322 44.8799 40.8569 45.5305C43.6117 48.6534 47.547 48.7835 51.0889 50.3449C51.4824 50.3449 51.876 50.3449 52.4007 50.3449C52.9254 50.7353 53.5813 50.9955 54.3684 50.7353C55.0243 50.9955 55.5491 50.9955 56.205 50.7353C58.5662 50.475 59.4845 49.8245 59.6156 48.0028C59.6156 45.7907 59.3533 43.4486 57.3856 41.8871ZM28.5259 26.7932C28.6571 26.533 28.9194 26.4028 29.1818 26.2727C28.9194 26.2727 28.6571 26.4028 28.5259 26.7932ZM31.1495 17.5546C31.1495 17.0341 31.2807 16.5137 31.2807 15.9932C31.2807 16.5137 31.2807 17.0341 31.1495 17.5546C31.1495 18.5956 31.1495 19.5065 31.6743 20.5474C31.6743 20.8077 31.6743 21.0679 31.6743 21.3281C31.6743 21.4583 31.6742 21.7185 31.8054 21.7185C31.6742 21.5884 31.6743 21.4583 31.6743 21.3281C31.6743 21.0679 31.6743 20.8077 31.6743 20.5474C31.1495 19.5065 31.1495 18.5956 31.1495 17.5546ZM33.7731 33.5595C32.8549 34.9908 31.6742 34.6004 30.4936 34.2101C29.9689 32.7788 28.7883 31.4775 28.3948 29.916C28.3948 29.5257 28.3947 29.1353 28.5259 28.6148C29.1818 28.0944 29.4441 27.4438 29.4441 26.663C29.4441 26.5329 29.5752 26.4028 29.5752 26.2727C30.2312 26.2727 31.0184 26.2727 31.6743 26.1426C32.0678 27.5739 33.5108 28.0944 34.2979 29.3956C35.085 31.0872 34.6914 32.2583 33.7731 33.5595Z" fill="#D97757"/>
</svg>
