<svg width="56" height="55" viewBox="0 0 56 55" fill="none" xmlns="http://www.w3.org/2000/svg">
<path d="M25.0901 32.7081C22.86 32.578 21.5482 31.2768 21.2858 29.1949C21.1547 27.7636 22.3353 26.2021 23.9094 25.5515C26.5331 24.5105 28.6321 25.1612 30.5998 26.9828C30.0751 28.6744 29.5502 30.3659 29.0255 32.0575C28.7632 32.0575 28.5008 32.1877 28.2385 32.1877C27.189 32.1877 26.1395 31.7972 25.0901 32.7081Z" fill="#D97757"/>
<path d="M53.8193 25.8131C50.4086 23.2107 46.8666 20.6083 42.2753 20.2179C41.4882 20.0878 40.5701 20.0878 39.783 19.9576C36.897 19.4372 36.7658 19.4372 37.5528 16.7046C38.6023 13.1914 39.127 9.67816 38.8647 5.90467C38.6023 2.9119 37.1593 1.35042 34.2733 0.829943C31.3874 0.309462 29.1573 1.35049 27.5832 3.82277C25.4843 7.2059 23.9101 10.7191 22.8607 14.4926C22.5983 15.4034 22.5984 16.4444 21.4177 17.2252C19.1877 14.6227 16.4327 12.8011 13.4156 11.3697C10.6608 10.0685 8.16836 8.76733 4.88885 9.41793C0.822248 10.1987 -1.1454 13.7119 0.691132 17.4854C2.52766 20.9987 5.4136 23.4709 8.69312 25.4227C9.87374 26.0733 11.0545 26.7239 12.2351 27.5046C12.891 28.0251 13.5468 28.6757 12.6285 29.5866C11.1855 31.148 10.5296 33.0998 9.34902 34.9215C7.25013 37.9142 6.06957 41.4275 5.1513 44.9408C4.75776 46.3721 5.28248 47.6733 6.46311 48.454C8.95554 50.0155 12.4974 49.6251 14.9898 47.6733C16.6952 46.3721 18.5316 45.0709 19.3187 42.8589C19.4499 42.3384 19.8435 41.948 20.4994 41.948C21.4176 41.8179 21.4177 42.7287 21.5489 43.2492C21.9424 44.4203 22.336 45.5914 22.8607 46.7625C24.0413 49.3649 24.9595 52.0974 27.5832 53.7889C30.6003 55.7407 34.0109 54.96 35.7163 51.8371C37.0281 49.6251 37.2905 47.1528 37.4217 44.6805C37.5529 42.0781 37.4217 39.4757 37.5528 36.8733C37.684 34.1408 37.9464 33.7505 40.7012 33.7505C44.3743 33.7505 47.9162 33.4902 51.5893 32.9697C53.2946 32.7094 54.2127 31.7986 54.7375 30.3673C55.2622 28.6757 55.2623 26.854 53.8193 25.8131ZM31.7809 26.9842C32.1744 26.9842 32.6991 26.854 33.0927 26.854C32.6991 26.854 32.3056 26.8541 31.7809 26.9842ZM28.3702 32.189C28.239 32.8396 28.1078 33.4902 27.7143 33.8805C27.9767 33.4902 28.1078 32.7095 28.3702 32.189C27.3208 32.189 26.1401 31.7986 25.2218 32.7094C22.9918 32.5793 21.6801 31.2782 21.4177 29.1962C21.2865 27.7649 22.4672 26.2034 24.0413 25.5528C26.665 24.5118 28.7638 25.1625 30.7315 26.9842C30.2068 28.6757 29.682 30.3673 29.1573 32.0588C28.8949 32.0588 28.6326 32.0589 28.3702 32.189Z" fill="#FACF71"/>
</svg>
