<svg width="184" height="56" viewBox="0 0 184 56" fill="none" xmlns="http://www.w3.org/2000/svg" class="dark:text-sand-800 text-black">
<path d="M141.492 22.0736C136.585 19.9234 131.371 17.7733 126.464 15.6231C121.25 13.4729 118.797 7.32923 121.25 2.41446C122.784 -0.657276 125.544 -0.350103 128.304 0.878591C138.732 5.48619 149.773 9.17227 159.894 14.7014C166.335 18.3875 173.389 20.2307 179.523 24.8383C185.35 29.1387 184.737 38.9682 177.989 42.0399C171.855 44.8045 165.415 47.2618 158.667 49.1049C153.147 50.6407 147.933 52.7909 142.719 54.6339C136.585 56.477 135.052 54.9411 134.438 48.4905C133.825 43.2685 137.199 41.1185 141.492 38.6611C136.279 36.818 131.985 38.3538 127.998 38.3538C116.343 38.661 104.689 39.5825 93.0344 39.8896C77.3929 40.1968 62.0583 42.6543 46.4168 44.1901C38.136 45.1117 29.8551 46.0332 21.5743 46.6475C17.2805 46.9547 12.9868 46.9546 8.69301 48.4905C4.70597 50.0263 1.33246 48.1834 0.412375 44.8045C-0.814408 39.8898 0.718959 35.5892 4.70601 34.6677C8.07966 33.7461 11.76 33.1319 15.4404 32.8247C34.4555 31.9032 53.1641 28.5242 72.4859 27.6027C89.6609 26.9884 106.529 25.4526 123.704 24.8383C129.531 24.5311 135.665 23.6095 141.492 22.9951C141.186 22.6879 141.186 22.3808 141.492 22.0736Z" fill="currentColor"/>
</svg>
