<svg width="72" height="72" viewBox="0 0 72 72" fill="none" xmlns="http://www.w3.org/2000/svg">
<path d="M47.1497 49.1039C47.2677 48.8111 47.3268 48.4598 47.4449 48.1672C48.1532 46.3519 50.2193 46.0006 51.5771 47.4059C52.4625 48.3428 52.6986 49.4554 52.1673 50.4508C51.459 51.739 50.2784 52.3244 48.9206 52.1488C48.2123 52.0316 48.0351 51.5632 47.7399 51.0949C47.5629 50.4508 47.3268 49.8067 47.1497 49.1039Z" fill="#FAC95D"/>
<path d="M62.5573 49.3392C62.4984 49.632 62.4984 49.9247 62.4393 50.2175C62.4984 49.9247 62.5573 49.632 62.5573 49.3392C62.5573 49.2807 62.5573 49.1636 62.4984 49.1049C62.2032 48.4023 61.5538 48.1095 60.8455 47.9339C60.7864 47.8754 60.7275 47.8754 60.6094 47.8754C60.019 47.3484 59.3697 46.8213 58.4842 46.9385C57.6579 46.6457 56.8903 46.4115 56.0049 46.353C55.1785 46.2944 54.9423 45.8259 55.4736 45.2405C56.5362 44.1279 56.9494 42.6641 57.6577 41.3172C58.012 40.6146 58.3071 39.7364 58.3662 38.9166C58.4251 37.8626 57.8938 36.9843 56.8903 36.8672C56.064 36.75 55.1785 36.75 54.352 36.6915C53.2894 36.633 52.4629 37.2185 51.9318 37.9797C50.9281 39.4436 50.0427 40.9659 49.1572 42.4884C48.9802 42.8397 48.8622 43.2495 48.4489 43.2495C47.9767 43.3082 47.8585 42.7811 47.7405 42.4884C47.0911 40.7318 45.7335 39.4436 44.6709 37.9797C44.3167 37.4526 43.7854 37.277 43.1952 37.3941C42.4278 37.5113 41.6604 37.6284 40.8928 37.8041C39.9484 38.0382 39.4171 38.2725 39.24 39.1508C38.9448 41.0831 39.0039 43.0154 40.2436 44.6549C40.7749 45.3575 41.3061 46.1772 42.1326 46.7043C42.7228 47.1141 43.018 47.8169 43.3722 48.4023C43.6674 48.9293 43.4902 49.4564 42.9 49.632C42.3097 49.8662 41.8965 50.3346 41.4241 50.6859C40.7158 51.2129 40.3026 52.1498 39.5943 52.6182C38.5317 53.3208 38.4726 54.3162 38.3545 55.3703C38.2365 56.19 38.8269 56.8341 39.4171 57.0098C40.1845 57.3026 41.1291 57.6539 42.0145 57.2441C43.6084 56.5413 45.2613 55.9559 46.737 55.019C47.6815 54.4334 47.6815 54.492 48.1537 55.4289C48.3898 55.9559 48.685 56.5413 48.9211 57.0684C49.8657 58.8836 50.8102 60.6402 52.0498 62.2211C52.345 62.5724 52.5811 62.9238 52.9944 62.9823C54.352 63.158 55.8277 62.0454 56.064 60.6401C56.182 59.8203 56.241 59.0006 56.241 58.1223C56.3001 56.5413 55.8868 55.0775 55.4146 53.6136C55.2375 53.0867 55.4736 52.6767 56.0049 52.6767C56.3001 52.6767 56.5362 52.7939 56.8314 52.8525C58.3662 53.0282 59.901 52.9695 61.1997 51.9156C62.0262 51.7985 62.5573 51.3887 62.5573 50.4518C63.1477 50.0418 63.1477 49.632 62.5573 49.3392ZM52.1088 50.4518C51.4005 51.74 50.2198 52.3254 48.8622 52.1498C48.1537 52.0326 47.9767 51.5643 47.6815 51.0959C47.4454 50.4518 47.2683 49.8077 47.0322 49.1049C47.1502 48.8123 47.2093 48.4608 47.3274 48.1682C48.0357 46.3529 50.1018 46.0016 51.4596 47.4069C52.4631 48.4023 52.6401 49.5149 52.1088 50.4518ZM59.1336 47.6997C59.0745 47.5241 58.8975 47.4654 58.7794 47.3483C58.8975 47.4654 59.0745 47.5826 59.1336 47.6997Z" fill="#85A865"/>
<path d="M20.2906 44.4187C19.2871 44.3602 18.6968 43.7746 18.5787 42.8377C18.5197 42.1937 19.0509 41.491 19.7593 41.1982C20.94 40.7297 21.8845 41.0225 22.77 41.8423C22.5339 42.6035 22.2977 43.3648 22.0616 44.1259C21.9435 44.1259 21.8254 44.1845 21.7074 44.1845C21.2351 44.1845 20.7629 44.0089 20.2906 44.4187Z" fill="#D97757"/>
<path d="M33.2187 41.3168C31.6839 40.1458 30.09 38.9747 28.0239 38.7991C27.6698 38.7404 27.2565 38.7404 26.9024 38.6819C25.6037 38.4476 25.5445 38.4476 25.8988 37.2181C26.371 35.6371 26.6071 34.0561 26.4891 32.3581C26.371 31.0114 25.7217 30.3086 24.423 30.0745C23.1243 29.8402 22.1208 30.3086 21.4124 31.4212C20.4679 32.9437 19.7596 34.5245 19.2873 36.2227C19.1693 36.6325 19.1693 37.1009 18.638 37.4522C17.6345 36.2812 16.3947 35.4614 15.037 34.8173C13.7974 34.2317 12.6758 33.6463 11.2 33.9391C9.37001 34.2904 8.48457 35.8714 9.31101 37.5694C10.1374 39.1504 11.4361 40.2629 12.9119 41.1412C13.4432 41.434 13.9745 41.7268 14.5058 42.0781C14.8009 42.3122 15.0961 42.605 14.6828 43.015C14.0335 43.7176 13.7383 44.5958 13.2071 45.4156C12.2626 46.7624 11.7313 48.3433 11.3181 49.9243C11.141 50.5684 11.3771 51.154 11.9084 51.5053C13.03 52.2079 14.6238 52.0322 15.7454 51.154C16.5128 50.5684 17.3392 49.9829 17.6934 48.9874C17.7525 48.7532 17.9296 48.5776 18.2247 48.5776C18.6379 48.5191 18.638 48.9289 18.697 49.1632C18.8741 49.6901 19.0512 50.2171 19.2873 50.744C19.8186 51.9152 20.2318 53.1448 21.4124 53.906C22.7701 54.7843 24.3049 54.433 25.0724 53.0276C25.6626 52.0322 25.7808 50.9197 25.8397 49.8071C25.8988 48.6361 25.8397 47.465 25.8988 46.294C25.9578 45.0643 26.0758 44.8886 27.3156 44.8886C28.9684 44.8886 30.5623 44.7715 32.2152 44.5373C32.9826 44.4202 33.3957 44.0104 33.6318 43.3663C33.868 42.605 33.868 41.7853 33.2187 41.3168ZM23.3014 41.8438C23.4785 41.8438 23.7146 41.7853 23.8917 41.7853C23.7146 41.7853 23.5375 41.7853 23.3014 41.8438ZM21.7666 44.186C21.7076 44.4788 21.6485 44.7715 21.4714 44.9471C21.5895 44.7715 21.6485 44.4202 21.7666 44.186C21.2943 44.186 20.763 44.0104 20.3498 44.4202C19.3463 44.3617 18.756 43.7761 18.638 42.8393C18.5789 42.1952 19.1102 41.4925 19.8186 41.1997C20.9992 40.7312 21.9437 41.024 22.8292 41.8438C22.5931 42.605 22.3569 43.3663 22.1208 44.1274C22.0027 44.1274 21.8847 44.1274 21.7666 44.186Z" fill="#FACF71"/>
<path d="M39.0039 20.8242C39.1811 21.4683 39.8304 21.7025 40.1846 22.2881C40.5387 22.9907 40.3616 23.5177 40.0074 24.1033C39.5942 24.7474 39.063 24.5718 38.5317 24.3961C38.2955 23.7519 37.7643 23.1664 37.5872 22.4637C37.5872 22.2881 37.5872 22.1124 37.6463 21.8782C37.9413 21.644 38.0594 21.3512 38.0594 20.9999C38.0594 20.9413 38.1185 20.8828 38.1185 20.8242C38.3546 20.8242 38.6498 20.8242 39.0039 20.8242Z" fill="#FAC95D"/>
<path d="M50.5738 27.8492C50.3377 27.615 50.1016 27.4394 49.9245 27.1466C49.216 26.0927 48.3897 25.1558 47.209 24.6873C47.1499 24.6288 47.091 24.6288 47.0319 24.6288C46.8549 23.6333 45.8512 23.6333 45.261 23.2234C44.5527 22.755 44.5527 22.5793 45.261 22.1694C46.7368 21.4082 48.0945 20.4714 49.2751 19.3589C50.928 17.7779 50.7508 16.2555 48.9799 14.9088C48.8028 14.7916 48.5667 14.6745 48.3897 14.5574C48.3306 14.4989 48.2716 14.4989 48.1536 14.4989C47.209 13.7962 45.5562 13.8548 44.3755 14.5574C43.1949 15.2015 42.2503 16.197 41.0107 16.7825C41.0107 16.9582 40.8927 17.0167 40.7155 17.0753C40.7155 16.8996 40.7746 16.7825 41.0107 16.7825C40.7746 16.197 40.7746 15.5529 40.6566 14.9088C40.4794 13.3863 39.8892 11.981 38.7085 10.8685C38.6494 10.4001 38.2953 10.3415 37.9411 10.2244C37.705 9.99021 37.4688 9.75597 37.1737 9.58031C35.8159 8.58489 34.3992 8.87767 33.6909 10.4001C33.1006 11.6883 33.0415 13.0936 33.1006 14.4989C33.1596 15.6114 33.2776 16.6654 33.3366 17.7779C32.6872 17.6608 32.1561 17.5437 31.6837 17.368C29.6767 16.7239 27.6697 16.3726 25.7806 17.7779C24.8362 18.422 24.6591 19.4174 25.3084 20.3543C26.0167 21.6425 27.1974 22.5208 28.4961 23.2234C29.4996 23.7504 30.6802 24.0432 31.6248 24.6873C32.097 24.9801 32.6283 25.1557 33.2185 25.0386C33.927 25.4485 33.927 25.9755 33.6318 26.6781C33.1596 27.9078 32.4513 29.0788 32.5693 30.4842C32.3922 30.8355 32.3331 31.2453 32.4511 31.5967C32.215 32.8263 32.6283 33.8217 33.2776 34.8171C33.4548 35.1099 33.6909 35.2856 34.045 35.1684C34.3992 35.1684 34.8124 35.227 35.1667 35.227C35.5798 35.5783 35.9931 35.4027 36.4653 35.227C37.587 34.6414 38.2362 33.646 38.5905 32.475C38.4133 32.4165 38.2362 32.475 38.0592 32.4163C38.2362 32.475 38.4133 32.475 38.5905 32.475C38.6494 32.3578 38.7085 32.2407 38.7675 32.1237C39.2398 31.3625 39.6531 30.6599 40.0072 29.8401C40.1842 29.3717 40.2433 28.7275 40.8927 28.4932C41.424 28.3176 41.6601 28.9032 42.1323 29.0203C42.4864 29.1373 42.8998 29.196 43.1359 29.4886C44.3755 30.894 46.1464 30.9525 47.7403 31.6553C47.9173 31.6553 48.0945 31.6553 48.3306 31.6553C48.5667 31.8309 48.8619 31.9481 49.216 31.8309C49.5112 31.9481 49.7473 31.9481 50.0425 31.8309C51.1051 31.7138 51.5182 31.4209 51.5773 30.6012C51.5773 29.6058 51.4593 28.5519 50.5738 27.8492ZM37.587 21.0569C37.6459 20.9398 37.764 20.8813 37.882 20.8227C37.764 20.8227 37.6459 20.8813 37.587 21.0569ZM38.7675 16.8996C38.7675 16.6654 38.8266 16.4312 38.8266 16.197C38.8266 16.4312 38.8266 16.6654 38.7675 16.8996C38.7675 17.368 38.7676 17.7779 39.0037 18.2463C39.0037 18.3635 39.0037 18.4806 39.0037 18.5977C39.0037 18.6562 39.0037 18.7733 39.0627 18.7733C39.0037 18.7148 39.0037 18.6562 39.0037 18.5977C39.0037 18.4806 39.0037 18.3635 39.0037 18.2463C38.7676 17.7779 38.7675 17.368 38.7675 16.8996ZM39.9481 24.1017C39.535 24.7458 39.0037 24.5701 38.4724 24.3945C38.2363 23.7504 37.705 23.1649 37.5279 22.4622C37.5279 22.2865 37.5279 22.1109 37.587 21.8767C37.882 21.6425 38.0001 21.3497 38.0001 20.9984C38.0001 20.9398 38.0592 20.8813 38.0592 20.8227C38.3542 20.8227 38.7085 20.8227 39.0037 20.7642C39.1807 21.4083 39.8301 21.6425 40.1844 22.228C40.5385 22.9892 40.3614 23.5162 39.9481 24.1017Z" fill="#D97757"/>
</svg>
