<svg width="72" height="72" viewBox="0 0 72 72" fill="none" xmlns="http://www.w3.org/2000/svg">
<g clip-path="url(#clip0_32_14)">
<mask id="mask0_32_14" style="mask-type:luminance" maskUnits="userSpaceOnUse" x="0" y="0" width="72" height="72">
<path d="M7.72812 0H64.2719C68.54 0 72 3.46 72 7.72812V64.2719C72 68.54 68.54 72 64.2719 72H7.72812C3.46 72 0 68.54 0 64.2719V7.72812C0 3.46 3.46 0 7.72812 0Z" fill="white"/>
</mask>
<g mask="url(#mask0_32_14)">
<path d="M7.72812 0H64.2719C68.54 0 72 3.46 72 7.72812V64.2719C72 68.54 68.54 72 64.2719 72H7.72812C3.46 72 0 68.54 0 64.2719V7.72812C0 3.46 3.46 0 7.72812 0Z" fill="url(#paint0_linear_32_14)"/>
<g filter="url(#filter0_i_32_14)">
<path d="M26.6646 37.61L23.565 28.8992C23.2581 28.0367 23.8795 27.1219 24.7629 27.1505C40.8115 27.6704 49.0665 33.17 48.3151 49.7143C45.6412 38.4085 32.8164 37.61 26.6646 37.61Z" fill="#58E5BB"/>
</g>
<g filter="url(#filter1_i_32_14)">
<path d="M22.5198 23.4192L19.2751 14.9311C18.9437 14.064 19.5648 13.1235 20.4616 13.1325C36.723 13.295 48.1777 13.9329 48.1777 35.3863C45.5037 24.0806 28.6716 23.4192 22.5198 23.4192Z" fill="#58E5BB"/>
</g>
<g filter="url(#filter2_i_32_14)">
<path d="M30.9151 52.2549L27.6182 43.0127C27.3122 42.1548 27.927 41.2424 28.8061 41.2709C42.0247 41.6988 48.6566 47.0334 47.9106 63.4594C45.2367 52.1536 37.1112 52.2549 30.9151 52.2549Z" fill="#58E5BB"/>
</g>
</g>
</g>
<defs>
<filter id="filter0_i_32_14" x="23.4856" y="27.1498" width="24.8766" height="29.8918" filterUnits="userSpaceOnUse" color-interpolation-filters="sRGB">
<feFlood flood-opacity="0" result="BackgroundImageFix"/>
<feBlend mode="normal" in="SourceGraphic" in2="BackgroundImageFix" result="shape"/>
<feColorMatrix in="SourceAlpha" type="matrix" values="0 0 0 0 0 0 0 0 0 0 0 0 0 0 0 0 0 0 127 0" result="hardAlpha"/>
<feOffset dy="7.32737"/>
<feGaussianBlur stdDeviation="3.66369"/>
<feComposite in2="hardAlpha" operator="arithmetic" k2="-1" k3="1"/>
<feColorMatrix type="matrix" values="0 0 0 0 0 0 0 0 0 0 0 0 0 0 0 0 0 0 0.25 0"/>
<feBlend mode="normal" in2="shape" result="effect1_innerShadow_32_14"/>
</filter>
<filter id="filter1_i_32_14" x="19.1847" y="13.1324" width="28.993" height="29.5813" filterUnits="userSpaceOnUse" color-interpolation-filters="sRGB">
<feFlood flood-opacity="0" result="BackgroundImageFix"/>
<feBlend mode="normal" in="SourceGraphic" in2="BackgroundImageFix" result="shape"/>
<feColorMatrix in="SourceAlpha" type="matrix" values="0 0 0 0 0 0 0 0 0 0 0 0 0 0 0 0 0 0 127 0" result="hardAlpha"/>
<feOffset dy="7.32737"/>
<feGaussianBlur stdDeviation="3.66369"/>
<feComposite in2="hardAlpha" operator="arithmetic" k2="-1" k3="1"/>
<feColorMatrix type="matrix" values="0 0 0 0 0 0 0 0 0 0 0 0 0 0 0 0 0 0 0.25 0"/>
<feBlend mode="normal" in2="shape" result="effect1_innerShadow_32_14"/>
</filter>
<filter id="filter2_i_32_14" x="27.5386" y="41.2703" width="20.4287" height="29.5165" filterUnits="userSpaceOnUse" color-interpolation-filters="sRGB">
<feFlood flood-opacity="0" result="BackgroundImageFix"/>
<feBlend mode="normal" in="SourceGraphic" in2="BackgroundImageFix" result="shape"/>
<feColorMatrix in="SourceAlpha" type="matrix" values="0 0 0 0 0 0 0 0 0 0 0 0 0 0 0 0 0 0 127 0" result="hardAlpha"/>
<feOffset dy="7.32737"/>
<feGaussianBlur stdDeviation="3.66369"/>
<feComposite in2="hardAlpha" operator="arithmetic" k2="-1" k3="1"/>
<feColorMatrix type="matrix" values="0 0 0 0 0 0 0 0 0 0 0 0 0 0 0 0 0 0 0.25 0"/>
<feBlend mode="normal" in2="shape" result="effect1_innerShadow_32_14"/>
</filter>
<linearGradient id="paint0_linear_32_14" x1="-2.28265e-06" y1="3.54204" x2="36" y2="72" gradientUnits="userSpaceOnUse">
<stop offset="0.461942" stop-color="#0F1010"/>
<stop offset="1" stop-color="#0F1010"/>
</linearGradient>
<clipPath id="clip0_32_14">
<rect width="72" height="72" fill="white"/>
</clipPath>
</defs>
</svg>
